# xmcd
#
# Track frame offsets:
# 150
# 22209
# 36006
# 53610
# 71268
# 93354
# 122892
# 150162
# 173328
#
# Disc length: 2578 seconds
#
#
# Revision: 0
# Processed by: cddbd v1.5.2PL0 Copyright (c) Steve Scherf et al.
# Submitted via: FreeRIP 2.90 
#
DISCID=610a1009
DTITLE=Vários - Coletânea ACCABRA - Coletânea ACCABRA
DYEAR=1900
DGENRE=Blues
TTITLE0=Mysty Mountain - Blues Etílicos
TTITLE1=Checkin on my Baby - Flávio Guimarães
TTITLE2=Dama da Noite - Nasi e os Irmãos do Blues
TTITLE3=Johnny B. Good - Irmandade do Blues
TTITLE4=Mot Blues - Marcos Otaviano
TTITLE5=Mr. Sonny Boy - Robson Fernandes
TTITLE6=My Babe Left This Morning - Danny Vincent
TTITLE7=Brand New Woman - Fernando Noronha
TTITLE8=Pequeno Pedaço dp Cristo - André Christovam
EXTD=
EXTT0=
EXTT1=
EXTT2=
EXTT3=
EXTT4=
EXTT5=
EXTT6=
EXTT7=
EXTT8=
PLAYORDER=
